<?xml version="1.0" standalone="no"?>
<!DOCTYPE svg PUBLIC "-//W3C//DTD SVG 20010904//EN"
 "http://www.w3.org/TR/2001/REC-SVG-20010904/DTD/svg10.dtd">
<svg version="1.0" xmlns="http://www.w3.org/2000/svg"
 width="800.000000pt" height="807.000000pt" viewBox="0 0 800.000000 807.000000"
 preserveAspectRatio="xMidYMid meet">

<g transform="translate(0.000000,807.000000) scale(0.100000,-0.100000)"
fill="#fff" stroke="none">
<path d="M3505 7213 c-1181 -2047 -2057 -3565 -2180 -3778 -145 -251 -659
-1141 -1067 -1850 l-260 -450 44 -39 c23 -22 281 -265 572 -541 605 -572 587
-555 600 -548 8 6 1451 1034 2022 1442 l261 186 -705 3 c-622 2 -703 4 -698
17 3 8 57 104 119 213 132 228 1174 2033 1505 2607 124 215 236 409 250 433
13 23 27 42 30 42 4 -1 199 -335 434 -743 235 -408 664 -1151 953 -1652 l525
-910 -714 -5 -713 -5 496 -340 c817 -560 862 -592 1226 -841 193 -132 421
-289 507 -347 l156 -107 559 570 c307 314 559 574 561 580 2 5 -98 184 -221
397 -123 213 -478 827 -787 1363 -309 536 -629 1090 -710 1230 -81 140 -293
507 -470 815 -371 642 -675 1169 -1329 2303 -255 441 -466 802 -470 802 -4 0
-227 -381 -496 -847z"/>
</g>
</svg>
